<?xml version="1.0" encoding="utf-8"?>
<!-- Uploaded to: SVG Repo, www.svgrepo.com, Generator: SVG Repo Mixer Tools -->
<svg fill="#000000" width="800px" height="800px" viewBox="-4.5 0 32 32" version="1.1" xmlns="http://www.w3.org/2000/svg">
<title>delivery</title>
<path d="M18.080 16.8c-2.64 0-4.8 2.16-4.8 4.8s2.16 4.8 4.8 4.8 4.8-2.16 4.8-4.8-2.080-4.8-4.8-4.8zM18.080 24.76c-1.72 0-3.12-1.4-3.12-3.12s1.4-3.12 3.12-3.12 3.12 1.4 3.12 3.12-1.32 3.12-3.12 3.12zM15.96 15.080c0.32 0.32 0.88 0.32 1.2 0s0.32-0.88 0-1.2l-3.56-3.44c-0.28-0.28-0.76-0.32-1.080-0.080l-5 3.8c-0.2 0.16-0.32 0.4-0.32 0.68s0.12 0.52 0.36 0.68l2.24 1.64-1.52 1.080c-0.96-0.88-2.16-1.44-3.48-1.44-2.64 0-4.8 2.16-4.8 4.8s2.16 4.8 4.8 4.8 4.8-2.16 4.8-4.8c0-0.72-0.16-1.4-0.44-2.040l2.48-1.72c0.24-0.16 0.36-0.4 0.36-0.68s-0.12-0.52-0.36-0.68l-2.28-1.68 3.52-2.68 3.080 2.96zM7.88 21.64c0 1.72-1.4 3.12-3.12 3.12s-3.12-1.4-3.12-3.12 1.4-3.12 3.12-3.12c0.76 0 1.44 0.28 2 0.72l-2.48 1.72c-0.36 0.28-0.48 0.8-0.2 1.16 0.16 0.24 0.44 0.36 0.68 0.36 0.16 0 0.32-0.040 0.48-0.16l2.48-1.72c0.12 0.32 0.16 0.64 0.16 1.040zM16.88 10.88c1.48 0 2.68-1.2 2.68-2.68s-1.2-2.68-2.68-2.68-2.68 1.2-2.68 2.68 1.2 2.68 2.68 2.68zM16.88 7.24c0.56 0 1 0.44 1 1s-0.44 1-1 1-1-0.44-1-1 0.44-1 1-1z"></path>
</svg>